<svg width="36" height="35" viewBox="0 0 36 35" fill="none" xmlns="http://www.w3.org/2000/svg">
  <mask id="mask0_1_66" style="mask-type:luminance" maskUnits="userSpaceOnUse" x="1" y="0" width="34" height="35">
    <path d="M35 0.0900879H1V34.0901H35V0.0900879Z" fill="white" />
  </mask>
  <g mask="url(#mask0_1_66)">
    <mask id="mask1_1_66" style="mask-type:luminance" maskUnits="userSpaceOnUse" x="1" y="0" width="34" height="35">
      <path d="M1 0.0900879H35V34.0901H1V0.0900879Z" fill="white" />
    </mask>
    <g mask="url(#mask1_1_66)">
      <path d="M7.375 21.8713H5.68031C3.8143 21.8713 2.27168 20.4835 2.02996 18.6839C2.00738 18.5212 1.99609 18.3558 1.99609 18.1871V15.4963H11.1442H14.9453H23.3125L34.0039 16.5589V18.1871C34.0039 20.2225 32.3517 21.8713 30.3197 21.8713H28.625" stroke="#050B20" stroke-width="2" stroke-miterlimit="10" stroke-linecap="round" stroke-linejoin="round" />
      <path d="M24.375 21.8713H16.2914H11.625" stroke="#050B20" stroke-width="2" stroke-miterlimit="10" stroke-linecap="round" stroke-linejoin="round" />
      <path d="M11.625 21.8713C11.625 23.0448 10.6736 23.9962 9.5 23.9962C8.3264 23.9962 7.375 23.0448 7.375 21.8713C7.375 20.6977 8.3264 19.7463 9.5 19.7463C10.6736 19.7463 11.625 20.6977 11.625 21.8713Z" stroke="#050B20" stroke-width="2" stroke-miterlimit="10" stroke-linecap="round" stroke-linejoin="round" />
      <path d="M28.625 21.8713C28.625 23.0448 27.6736 23.9962 26.5 23.9962C25.3264 23.9962 24.375 23.0448 24.375 21.8713C24.375 20.6977 25.3264 19.7463 26.5 19.7463C27.6736 19.7463 28.625 20.6977 28.625 21.8713Z" stroke="#050B20" stroke-width="2" stroke-miterlimit="10" stroke-linecap="round" stroke-linejoin="round" />
      <path d="M3.65656 18.6838H2.03027" stroke="#050B20" stroke-width="2" stroke-miterlimit="10" stroke-linecap="round" stroke-linejoin="round" />
      <path d="M11.144 15.4963L10.6034 12.9337C10.3903 11.929 11.0311 10.9415 12.0358 10.7284C13.0405 10.5146 14.028 11.156 14.2411 12.1601C15.1289 16.3636 14.6724 14.2014 16.2911 21.8713" stroke="#050B20" stroke-width="2" stroke-miterlimit="10" stroke-linecap="round" stroke-linejoin="round" />
      <path d="M23.3125 15.4962L21.1875 10.1838" stroke="#050B20" stroke-width="2" stroke-miterlimit="10" stroke-linecap="round" stroke-linejoin="round" />
      <path d="M1.99609 15.4963C3.00593 13.2344 5.25153 11.7776 7.72875 11.7776H10.7292" stroke="#050B20" stroke-width="2" stroke-miterlimit="10" stroke-linecap="round" stroke-linejoin="round" />
    </g>
  </g>
</svg>