<svg width="34" height="35" viewBox="0 0 34 35" fill="none" xmlns="http://www.w3.org/2000/svg">
  <mask id="mask0_1_54" style="mask-type:luminance" maskUnits="userSpaceOnUse" x="0" y="0" width="34" height="35">
    <path d="M34 0.0900879H0V34.0901H34V0.0900879Z" fill="white" />
  </mask>
  <g mask="url(#mask0_1_54)">
    <path d="M29.1539 13.0492H26.4432C25.5374 11.7192 24.3322 10.6074 22.9281 9.81446C21.3558 8.92653 19.5704 8.45728 17.765 8.45728H17C16.4451 8.45728 15.9953 8.90707 15.9953 9.46192V13.0492H4.8461C2.39815 13.0492 0.369644 14.8741 0.046173 17.2346C0.042542 17.2574 0.039429 17.2802 0.037354 17.3036C0.013748 17.4979 0 17.695 0 17.8955V21.737C0 22.2918 0.449799 22.7416 1.00465 22.7416H4.51978C4.96672 24.4682 6.5379 25.7468 8.40221 25.7468C10.2665 25.7468 11.8377 24.4682 12.2846 22.7416H21.7154C22.1626 24.4682 23.7335 25.7468 25.5978 25.7468C27.4621 25.7468 29.033 24.4682 29.4802 22.7416H32.9953C33.5502 22.7416 34 22.2918 34 21.737V17.8955C34 15.2232 31.826 13.0492 29.1539 13.0492ZM18.0047 10.4702C20.2251 10.5338 22.3312 11.4808 23.8588 13.0492H18.0047V10.4702ZM2.00931 18.3941H3.56104C4.11589 18.3941 4.56569 17.9443 4.56569 17.3894C4.56569 16.8346 4.11589 16.3848 3.56104 16.3848H2.44691C2.94989 15.5887 3.83704 15.0587 4.8461 15.0587H15.9953V20.7323H12.2846C11.8374 19.0058 10.2665 17.7269 8.40221 17.7269C6.5379 17.7269 4.96698 19.0058 4.51978 20.7323H2.00931V18.3941ZM10.4027 21.737C10.4027 22.8402 9.5054 23.7375 8.40221 23.7375C7.29898 23.7375 6.40172 22.8402 6.40172 21.737C6.40172 20.6338 7.29898 19.7365 8.40221 19.7365C9.5054 19.7365 10.4027 20.6338 10.4027 21.737ZM27.5983 21.737C27.5983 22.8402 26.701 23.7375 25.5978 23.7375C24.4946 23.7375 23.5973 22.8402 23.5973 21.737C23.5973 20.6338 24.4946 19.7365 25.5978 19.7365C26.701 19.7365 27.5983 20.6338 27.5983 21.737ZM29.4802 20.7323C29.0333 19.0058 27.4621 17.7269 25.5978 17.7269C23.7335 17.7269 22.1623 19.0058 21.7154 20.7323H18.0047V15.0587H29.1539C30.1451 15.0587 31.019 15.5703 31.5264 16.3428H29.9715C29.4167 16.3428 28.9669 16.7926 28.9669 17.3474C28.9669 17.9023 29.4167 18.3523 29.9715 18.3523H31.9907V20.7323H29.4802Z" fill="#050B20" />
  </g>
</svg>