<svg width="34" height="35" viewBox="0 0 34 35" fill="none" xmlns="http://www.w3.org/2000/svg">
  <path d="M26.5625 13.9025H25.3194C25.1795 13.9034 25.0409 13.8766 24.9115 13.8237C24.782 13.7708 24.6643 13.6929 24.565 13.5944L21.7387 10.7682C21.0418 10.0712 20.2132 9.51971 19.3012 9.14579C18.3891 8.77186 17.4119 8.58295 16.4263 8.59004H7.4375C6.02854 8.59004 4.67728 9.14975 3.681 10.146C2.68471 11.1423 2.125 12.4936 2.125 13.9025V19.215C2.125 20.0604 2.46083 20.8712 3.0586 21.469C3.65637 22.0667 4.46712 22.4025 5.3125 22.4025C5.3125 23.3888 5.7043 24.3347 6.4017 25.0321C7.0991 25.7295 8.04498 26.1213 9.03125 26.1213C10.0175 26.1213 10.9634 25.7295 11.6608 25.0321C12.3582 24.3347 12.75 23.3888 12.75 22.4025H20.2938C20.4112 23.2915 20.8478 24.1075 21.5221 24.6986C22.1965 25.2897 23.0626 25.6156 23.9594 25.6156C24.8561 25.6156 25.7223 25.2897 26.3966 24.6986C27.071 24.1075 27.5075 23.2915 27.625 22.4025H28.6875C29.5329 22.4025 30.3436 22.0667 30.9414 21.469C31.5392 20.8712 31.875 20.0604 31.875 19.215C31.875 17.8061 31.3153 16.4548 30.319 15.4585C29.3227 14.4623 27.9715 13.9025 26.5625 13.9025ZM16.4794 10.715C17.1775 10.7138 17.869 10.8502 18.5144 11.1163C19.1598 11.3825 19.7464 11.7733 20.2406 12.2663L21.8769 13.9025H8.755C8.55699 13.9039 8.36253 13.8499 8.19357 13.7467C8.0246 13.6434 7.88785 13.495 7.79875 13.3182L6.56625 10.8532C6.84804 10.7635 7.14178 10.7169 7.4375 10.715H16.4794ZM4.25 19.215V13.9025C4.25058 13.2573 4.44694 12.6275 4.81313 12.0963L5.87563 14.2213C6.13626 14.7634 6.54495 15.2206 7.05446 15.5402C7.56398 15.8599 8.15353 16.0288 8.755 16.0275H14.875V20.2775H12.3781C12.0797 19.642 11.6064 19.1045 11.0137 18.7281C10.421 18.3516 9.7334 18.1517 9.03125 18.1517C8.3291 18.1517 7.64146 18.3516 7.04876 18.7281C6.45607 19.1045 5.98282 19.642 5.68437 20.2775H5.3125C5.03071 20.2775 4.76046 20.1656 4.5612 19.9664C4.36194 19.7671 4.25 19.4968 4.25 19.215ZM9.03125 23.465C8.71604 23.465 8.4079 23.3716 8.14581 23.1965C7.88372 23.0213 7.67944 22.7724 7.55882 22.4812C7.43819 22.19 7.40663 21.8695 7.46812 21.5604C7.52962 21.2512 7.68141 20.9672 7.9043 20.7443C8.12719 20.5215 8.41117 20.3697 8.72032 20.3082C9.02948 20.2467 9.34993 20.2782 9.64115 20.3989C9.93237 20.5195 10.1813 20.7238 10.3564 20.9859C10.5315 21.2479 10.625 21.5561 10.625 21.8713C10.625 22.294 10.4571 22.6994 10.1582 22.9982C9.85932 23.2971 9.45394 23.465 9.03125 23.465ZM23.9062 23.465C23.591 23.465 23.2829 23.3716 23.0208 23.1965C22.7587 23.0213 22.5544 22.7724 22.4338 22.4812C22.3132 22.19 22.2816 21.8695 22.3431 21.5604C22.4046 21.2512 22.5564 20.9672 22.7793 20.7443C23.0022 20.5215 23.2862 20.3697 23.5953 20.3082C23.9045 20.2467 24.2249 20.2782 24.5162 20.3989C24.8074 20.5195 25.0563 20.7238 25.2314 20.9859C25.4065 21.2479 25.5 21.5561 25.5 21.8713C25.5 22.294 25.3321 22.6994 25.0332 22.9982C24.7343 23.2971 24.3289 23.465 23.9062 23.465ZM28.6875 20.2775H27.2531C26.9547 19.642 26.4814 19.1045 25.8887 18.7281C25.296 18.3516 24.6084 18.1517 23.9062 18.1517C23.2041 18.1517 22.5165 18.3516 21.9238 18.7281C21.3311 19.1045 20.8578 19.642 20.5594 20.2775H17V16.0275H26.5625C27.0081 16.0299 27.4482 16.1257 27.8545 16.3087C28.2608 16.4918 28.6242 16.7579 28.9212 17.09H28.6875C28.4057 17.09 28.1355 17.202 27.9362 17.4012C27.7369 17.6005 27.625 17.8708 27.625 18.1525C27.625 18.4343 27.7369 18.7046 27.9362 18.9039C28.1355 19.1031 28.4057 19.215 28.6875 19.215H29.75C29.75 19.4968 29.6381 19.7671 29.4388 19.9664C29.2395 20.1656 28.9693 20.2775 28.6875 20.2775Z" fill="#050B20" />
</svg>