<svg width="34" height="34" viewBox="0 0 34 34" fill="none" xmlns="http://www.w3.org/2000/svg">
  <path d="M30.5394 15.7463L26.3033 14.0526L23.8414 8.30769C23.3378 7.13362 22.1882 6.375 20.9111 6.375H11.1658C9.75056 6.375 8.48938 7.32594 8.1005 8.687L6.63637 13.8125H4.25C3.07806 13.8125 2.125 14.7656 2.125 15.9375V22.3125C2.125 23.4844 3.07806 24.4375 4.25 24.4375H6.52588C7.00081 26.265 8.65088 27.625 10.625 27.625C12.5991 27.625 14.2492 26.265 14.7241 24.4375H19.2759C19.7508 26.265 21.4009 27.625 23.375 27.625C25.3491 27.625 26.9992 26.265 27.4741 24.4375H29.75C30.9219 24.4375 31.875 23.4844 31.875 22.3125V17.7193C31.875 16.8449 31.3512 16.0703 30.5394 15.7463ZM10.625 25.5C9.45306 25.5 8.5 24.5469 8.5 23.375C8.5 22.2031 9.45306 21.25 10.625 21.25C11.7969 21.25 12.75 22.2031 12.75 23.375C12.75 24.5469 11.7969 25.5 10.625 25.5ZM23.375 25.5C22.2031 25.5 21.25 24.5469 21.25 23.375C21.25 22.2031 22.2031 21.25 23.375 21.25C24.5469 21.25 25.5 22.2031 25.5 23.375C25.5 24.5469 24.5469 25.5 23.375 25.5ZM29.75 22.3125H27.4741C26.9992 20.485 25.3491 19.125 23.375 19.125C21.4009 19.125 19.7508 20.485 19.2759 22.3125H14.7241C14.2492 20.485 12.5991 19.125 10.625 19.125C8.65088 19.125 7.00081 20.485 6.52588 22.3125H4.25V15.9375H7.4375C7.91138 15.9375 8.32894 15.623 8.45856 15.1672L10.1426 9.27137C10.2733 8.81662 10.693 8.5 11.1658 8.5H20.9111C21.3361 8.5 21.7196 8.75287 21.8875 9.14387L24.5225 15.2936C24.633 15.5529 24.8423 15.7569 25.1037 15.8621L29.75 17.7193V22.3125Z" fill="#050B20" />
  <path d="M15.3481 18.9465C14.8604 18.6214 14.7287 17.9616 15.0538 17.4728L16.077 15.9375H14.8753C14.4833 15.9375 14.1231 15.7218 13.9382 15.3765C13.7533 15.0312 13.7735 14.6115 13.9913 14.2864L16.1163 11.0989C16.4414 10.6102 17.1013 10.4784 17.59 10.8046C18.0777 11.1297 18.2094 11.7895 17.8843 12.2783L16.8611 13.8125H18.0628C18.4549 13.8125 18.8151 14.0282 18.9999 14.3735C19.1848 14.7188 19.1646 15.1385 18.9468 15.4637L16.8218 18.6512C16.4956 19.141 15.8348 19.2717 15.3481 18.9465Z" fill="#050B20" />
</svg>