<svg width="25" height="25" viewBox="0 0 19 19" fill="none" xmlns="http://www.w3.org/2000/svg">
  <g clip-path="url(#clip0_1_167)">
    <path d="M18.38 10.87C18.38 12.91 17.78 14.73 16.58 16.33C16.46 16.49 16.3 16.58 16.1 16.6C15.9 16.62 15.72 16.57 15.56 16.45C15.4 16.33 15.31 16.18 15.29 16C15.27 15.82 15.32 15.65 15.44 15.49C16.48 14.13 17 12.59 17 10.87C17 9.50996 16.66 8.24996 15.98 7.08996C15.3 5.92996 14.37 5.00996 13.19 4.32996C12.01 3.64996 10.74 3.30996 9.38 3.30996C8.02 3.30996 6.75 3.64996 5.57 4.32996C4.39 5.00996 3.46 5.92996 2.78 7.08996C2.1 8.24996 1.76 9.50996 1.76 10.87C1.76 12.59 2.28 14.13 3.32 15.49C3.44 15.65 3.49 15.82 3.47 16C3.45 16.18 3.36 16.33 3.2 16.45C3.04 16.57 2.86 16.62 2.66 16.6C2.46 16.58 2.3 16.49 2.18 16.33C0.980005 14.73 0.380005 12.91 0.380005 10.87C0.380005 9.26996 0.780005 7.77996 1.58 6.39996C2.38 5.01996 3.47 3.92996 4.85 3.12996C6.23 2.32996 7.74 1.92996 9.38 1.92996C11.02 1.92996 12.53 2.32996 13.91 3.12996C15.29 3.92996 16.38 5.01996 17.18 6.39996C17.98 7.77996 18.38 9.26996 18.38 10.87ZM13.82 6.66996C13.98 6.78996 14.06 6.94996 14.06 7.14996C14.06 7.34996 13.98 7.50996 13.82 7.62996L11.54 9.96996C11.74 10.33 11.84 10.71 11.84 11.11C11.84 11.79 11.6 12.37 11.12 12.85C10.64 13.33 10.06 13.57 9.38 13.57C8.7 13.57 8.12 13.33 7.64 12.85C7.16 12.37 6.92 11.79 6.92 11.11C6.92 10.43 7.16 9.84996 7.64 9.36996C8.12 8.88996 8.7 8.64996 9.38 8.64996C9.78 8.64996 10.16 8.74996 10.52 8.94996L12.86 6.66996C12.98 6.50996 13.14 6.42996 13.34 6.42996C13.54 6.42996 13.7 6.50996 13.82 6.66996ZM10.46 11.11C10.46 10.83 10.35 10.59 10.13 10.39C9.91 10.19 9.66 10.09 9.38 10.09C9.10001 10.09 8.85001 10.19 8.63 10.39C8.41 10.59 8.3 10.83 8.3 11.11C8.3 11.39 8.41 11.64 8.63 11.86C8.85001 12.08 9.10001 12.19 9.38 12.19C9.66 12.19 9.91 12.08 10.13 11.86C10.35 11.64 10.46 11.39 10.46 11.11Z" fill="white" />
  </g>
  <defs>
    <clipPath id="clip0_1_167">
      <rect width="18" height="18" fill="white" transform="matrix(1 0 0 -1 0.380005 18.25)" />
    </clipPath>
  </defs>
</svg>