<svg width="34" height="35" viewBox="0 0 34 35" fill="none" xmlns="http://www.w3.org/2000/svg">
  <mask id="mask0_1_42" style="mask-type:luminance" maskUnits="userSpaceOnUse" x="0" y="0" width="34" height="35">
    <path d="M34 0.0900879H0V34.0901H34V0.0900879Z" fill="white" />
  </mask>
  <g mask="url(#mask0_1_42)">
    <path d="M30.759 15.6774L24.8898 14.6987C24.5466 14.1413 23.8644 13.133 22.8725 12.1228C20.8927 10.1065 18.6133 9.04077 16.2806 9.04077H6.7225C5.16993 9.04077 3.73044 9.88021 2.96577 11.2315L0.331898 15.8863C0.327648 15.8938 0.324461 15.9016 0.32041 15.9092C0.116676 16.2738 0 16.6934 0 17.14V22.0449C0 22.595 0.445984 23.0409 0.99609 23.0409H4.18632C4.65455 24.2661 5.848 25.1395 7.24339 25.1395C8.63879 25.1395 9.8322 24.2661 10.3005 23.0409H22.672C23.1402 24.2661 24.3336 25.1395 25.729 25.1395C27.1244 25.1395 28.3178 24.2661 28.786 23.0409H33.0039C33.554 23.0409 34 22.595 34 22.0449V19.4079C34 17.5393 32.6077 15.9383 30.759 15.6774ZM22.3976 14.6083H15.222V11.033H16.2806C19.104 11.033 21.2363 13.1203 22.3976 14.6083ZM8.57371 11.033H13.2299V14.6083H8.57371V11.033ZM4.69964 12.2126C5.08811 11.5261 5.80012 11.0854 6.58152 11.0378V14.6083H3.34402L4.69964 12.2126ZM7.24339 23.1473C6.53929 23.1473 5.96647 22.5841 5.96647 21.8917C5.96647 21.1994 6.53929 20.6361 7.24339 20.6361C7.9475 20.6361 8.52032 21.1994 8.52032 21.8917C8.52032 22.5841 7.9475 23.1473 7.24339 23.1473ZM25.729 23.1473C25.0248 23.1473 24.452 22.5841 24.452 21.8917C24.452 21.1994 25.0249 20.6361 25.729 20.6361C26.4331 20.6361 27.0059 21.1994 27.0059 21.8917C27.0059 22.5841 26.4331 23.1473 25.729 23.1473ZM28.8857 21.0487C28.5111 19.6654 27.2381 18.6439 25.729 18.6439C24.2198 18.6439 22.9469 19.6654 22.5721 21.0487H10.4001C10.0255 19.6654 8.75254 18.6439 7.24339 18.6439C5.73425 18.6439 4.4613 19.6654 4.08657 21.0487H1.99219V17.14C1.99219 16.8425 2.23417 16.6005 2.53167 16.6005H24.183L30.4445 17.6447C30.4541 17.6463 30.4637 17.6478 30.4734 17.6491C30.6428 17.6723 30.804 17.7196 30.9541 17.7868C30.5374 17.906 30.232 18.2889 30.232 18.7439C30.232 19.294 30.678 19.74 31.2281 19.74H32.0078V21.0488L28.8857 21.0487Z" fill="#050B20" />
  </g>
</svg>