<svg width="34" height="35" viewBox="0 0 34 35" fill="none" xmlns="http://www.w3.org/2000/svg">
  <mask id="mask0_1_32" style="mask-type:luminance" maskUnits="userSpaceOnUse" x="0" y="0" width="34" height="35">
    <path d="M34 0.0900879H0V34.0901H34V0.0900879Z" fill="white" />
  </mask>
  <g mask="url(#mask0_1_32)">
    <path d="M32.8913 21.5249H31.7826V15.9815C31.7826 14.1474 30.2905 12.6554 28.4565 12.6554H24.8209L23.3616 8.27738C22.908 6.91712 21.6399 6.00317 20.2061 6.00317C20.0334 6.00317 8.04731 6.00317 7.76083 6.00317C6.31543 6.00317 5.08313 6.93013 4.62546 8.22054H3.32609C1.49208 8.22054 0 9.71262 0 11.5466V15.9815C0 17.8155 1.49208 19.3075 3.32609 19.3075H4.43481V21.5249H3.32609C2.71382 21.5249 2.21737 22.0213 2.21737 22.6336C2.21737 23.246 2.71376 23.7424 3.32609 23.7424C4.36442 23.7424 5.6104 23.7424 6.65218 23.7424C6.65218 26.1877 8.64164 28.1772 11.087 28.1772C13.5323 28.1772 15.5218 26.1877 15.5218 23.7424H20.6957C20.6957 26.1877 22.6852 28.1772 25.1305 28.1772C27.5759 28.1772 29.5653 26.1877 29.5653 23.7424C30.6074 23.7424 31.8538 23.7424 32.8914 23.7424C33.5037 23.7424 34.0001 23.246 34.0001 22.6336C34.0001 22.0213 33.5036 21.5249 32.8913 21.5249ZM4.43481 17.0901H3.32609C2.71475 17.0901 2.21737 16.5927 2.21737 15.9814V11.5466C2.21737 10.9352 2.71475 10.4379 3.32609 10.4379H4.43481C4.43481 11.1443 4.43481 16.4051 4.43481 17.0901ZM15.5217 8.22054H17.3696H20.2061C20.6841 8.22054 21.1068 8.52521 21.2579 8.97856L22.4834 12.6553H15.5217V8.22054ZM6.65218 9.32919C6.65218 8.71785 7.14956 8.22047 7.7609 8.22047H13.3044V12.6553H6.65218V9.32919ZM11.087 25.9597C9.86432 25.9597 8.86962 24.965 8.86962 23.7423C8.86962 22.5196 9.86432 21.5249 11.087 21.5249C12.3097 21.5249 13.3044 22.5196 13.3044 23.7423C13.3044 24.965 12.3097 25.9597 11.087 25.9597ZM25.1304 25.9597C23.9078 25.9597 22.9131 24.965 22.9131 23.7423C22.9131 22.5196 23.9078 21.5249 25.1304 21.5249C26.3531 21.5249 27.3478 22.5196 27.3478 23.7423C27.3478 24.965 26.3531 25.9597 25.1304 25.9597ZM29.5652 21.5249H28.9686C28.2005 20.2007 26.7683 19.3075 25.1304 19.3075C23.4926 19.3075 22.0604 20.2007 21.2923 21.5249H14.9251C14.1571 20.2007 12.7248 19.3075 11.087 19.3075C9.44914 19.3075 8.01689 20.2007 7.24884 21.5249H6.65225V18.1988V14.8727C8.46022 14.8727 27.2694 14.8727 28.4566 14.8727C29.0679 14.8727 29.5653 15.3701 29.5653 15.9815L29.5652 21.5249Z" fill="#050B20" />
    <path d="M18.8481 17.0901H16.6307C16.0184 17.0901 15.522 17.5865 15.522 18.1988C15.522 18.8111 16.0184 19.3075 16.6307 19.3075H18.8481C19.4603 19.3075 19.9568 18.8112 19.9568 18.1988C19.9568 17.5865 19.4604 17.0901 18.8481 17.0901Z" fill="#050B20" />
  </g>
</svg>