<svg width="19" height="19" viewBox="0 0 19 19" fill="none" xmlns="http://www.w3.org/2000/svg">
  <path d="M3.89001 1.92995C3.33001 1.92995 2.85001 2.12995 2.45001 2.52995C2.05001 2.92995 1.85001 3.41995 1.85001 3.99995C1.85001 4.57995 2.05001 5.06995 2.45001 5.46995C2.85001 5.86995 3.33001 6.06995 3.89001 6.06995C4.45001 6.06995 4.93001 5.86995 5.33001 5.46995C5.73001 5.06995 5.93001 4.57995 5.93001 3.99995C5.93001 3.41995 5.73001 2.92995 5.33001 2.52995C4.93001 2.12995 4.45001 1.92995 3.89001 1.92995ZM3.89001 3.06995C4.13001 3.06995 4.35001 3.15995 4.55001 3.33995C4.75001 3.51995 4.85001 3.73995 4.85001 3.99995C4.85001 4.25995 4.75001 4.47995 4.55001 4.65995C4.35001 4.83995 4.13001 4.92995 3.89001 4.92995C3.65001 4.92995 3.43001 4.83995 3.23001 4.65995C3.03001 4.47995 2.93001 4.25995 2.93001 3.99995C2.93001 3.73995 3.03001 3.51995 3.23001 3.33995C3.43001 3.15995 3.65001 3.06995 3.89001 3.06995ZM3.89001 12.4299C3.33001 12.4299 2.85001 12.6299 2.45001 13.0299C2.05001 13.4299 1.85001 13.9199 1.85001 14.4999C1.85001 15.0799 2.05001 15.5699 2.45001 15.9699C2.85001 16.3699 3.33001 16.5699 3.89001 16.5699C4.45001 16.5699 4.93001 16.3699 5.33001 15.9699C5.73001 15.5699 5.93001 15.0799 5.93001 14.4999C5.93001 13.9199 5.73001 13.4299 5.33001 13.0299C4.93001 12.6299 4.45001 12.4299 3.89001 12.4299ZM3.89001 13.5699C4.13001 13.5699 4.35001 13.6599 4.55001 13.8399C4.75001 14.0199 4.85001 14.2399 4.85001 14.4999C4.85001 14.7599 4.75001 14.9799 4.55001 15.1599C4.35001 15.3399 4.13001 15.4299 3.89001 15.4299C3.65001 15.4299 3.43001 15.3399 3.23001 15.1599C3.03001 14.9799 2.93001 14.7599 2.93001 14.4999C2.93001 14.2399 3.03001 14.0199 3.23001 13.8399C3.43001 13.6599 3.65001 13.5699 3.89001 13.5699ZM9.89001 1.92995C9.33001 1.92995 8.85001 2.12995 8.45001 2.52995C8.05001 2.92995 7.85001 3.41995 7.85001 3.99995C7.85001 4.57995 8.05001 5.06995 8.45001 5.46995C8.85001 5.86995 9.33001 6.06995 9.89001 6.06995C10.45 6.06995 10.93 5.86995 11.33 5.46995C11.73 5.06995 11.93 4.57995 11.93 3.99995C11.93 3.41995 11.73 2.92995 11.33 2.52995C10.93 2.12995 10.45 1.92995 9.89001 1.92995ZM9.89001 3.06995C10.13 3.06995 10.35 3.15995 10.55 3.33995C10.75 3.51995 10.85 3.73995 10.85 3.99995C10.85 4.25995 10.75 4.47995 10.55 4.65995C10.35 4.83995 10.13 4.92995 9.89001 4.92995C9.65001 4.92995 9.43001 4.83995 9.23001 4.65995C9.03001 4.47995 8.93001 4.25995 8.93001 3.99995C8.93001 3.73995 9.03001 3.51995 9.23001 3.33995C9.43001 3.15995 9.65001 3.06995 9.89001 3.06995ZM9.89001 12.4299C9.33001 12.4299 8.85001 12.6299 8.45001 13.0299C8.05001 13.4299 7.85001 13.9199 7.85001 14.4999C7.85001 15.0799 8.05001 15.5699 8.45001 15.9699C8.85001 16.3699 9.33001 16.5699 9.89001 16.5699C10.45 16.5699 10.93 16.3699 11.33 15.9699C11.73 15.5699 11.93 15.0799 11.93 14.4999C11.93 13.9199 11.73 13.4299 11.33 13.0299C10.93 12.6299 10.45 12.4299 9.89001 12.4299ZM9.89001 13.5699C10.13 13.5699 10.35 13.6599 10.55 13.8399C10.75 14.0199 10.85 14.2399 10.85 14.4999C10.85 14.7599 10.75 14.9799 10.55 15.1599C10.35 15.3399 10.13 15.4299 9.89001 15.4299C9.65001 15.4299 9.43001 15.3399 9.23001 15.1599C9.03001 14.9799 8.93001 14.7599 8.93001 14.4999C8.93001 14.2399 9.03001 14.0199 9.23001 13.8399C9.43001 13.6599 9.65001 13.5699 9.89001 13.5699ZM15.89 1.92995C15.33 1.92995 14.85 2.12995 14.45 2.52995C14.05 2.92995 13.85 3.41995 13.85 3.99995C13.85 4.57995 14.05 5.06995 14.45 5.46995C14.85 5.86995 15.33 6.06995 15.89 6.06995C16.45 6.06995 16.93 5.86995 17.33 5.46995C17.73 5.06995 17.93 4.57995 17.93 3.99995C17.93 3.41995 17.73 2.92995 17.33 2.52995C16.93 2.12995 16.45 1.92995 15.89 1.92995ZM15.89 3.06995C16.13 3.06995 16.35 3.15995 16.55 3.33995C16.75 3.51995 16.85 3.73995 16.85 3.99995C16.85 4.25995 16.75 4.47995 16.55 4.65995C16.35 4.83995 16.13 4.92995 15.89 4.92995C15.65 4.92995 15.43 4.83995 15.23 4.65995C15.03 4.47995 14.93 4.25995 14.93 3.99995C14.93 3.73995 15.03 3.51995 15.23 3.33995C15.43 3.15995 15.65 3.06995 15.89 3.06995ZM15.89 12.4299C15.33 12.4299 14.85 12.6299 14.45 13.0299C14.05 13.4299 13.85 13.9199 13.85 14.4999C13.85 15.0799 14.05 15.5699 14.45 15.9699C14.85 16.3699 15.33 16.5699 15.89 16.5699C16.45 16.5699 16.93 16.3699 17.33 15.9699C17.73 15.5699 17.93 15.0799 17.93 14.4999C17.93 13.9199 17.73 13.4299 17.33 13.0299C16.93 12.6299 16.45 12.4299 15.89 12.4299ZM15.89 13.5699C16.13 13.5699 16.35 13.6599 16.55 13.8399C16.75 14.0199 16.85 14.2399 16.85 14.4999C16.85 14.7599 16.75 14.9799 16.55 15.1599C16.35 15.3399 16.13 15.4299 15.89 15.4299C15.65 15.4299 15.43 15.3399 15.23 15.1599C15.03 14.9799 14.93 14.7599 14.93 14.4999C14.93 14.2399 15.03 14.0199 15.23 13.8399C15.43 13.6599 15.65 13.5699 15.89 13.5699ZM3.35001 5.46995V12.9699C3.35001 13.1299 3.40001 13.2699 3.50001 13.3899C3.60001 13.5099 3.73001 13.5699 3.89001 13.5699C4.05001 13.5699 4.18001 13.5099 4.28001 13.3899C4.38001 13.2699 4.43001 13.1499 4.43001 13.0299V5.46995C4.43001 5.34995 4.38001 5.22995 4.28001 5.10995C4.18001 4.98995 4.05001 4.92995 3.89001 4.92995C3.73001 4.92995 3.60001 4.98995 3.50001 5.10995C3.40001 5.22995 3.35001 5.34995 3.35001 5.46995ZM9.35001 5.46995V12.9699C9.35001 13.1299 9.40001 13.2699 9.50001 13.3899C9.60001 13.5099 9.73001 13.5699 9.89001 13.5699C10.05 13.5699 10.18 13.5099 10.28 13.3899C10.38 13.2699 10.43 13.1499 10.43 13.0299V5.46995C10.43 5.34995 10.38 5.22995 10.28 5.10995C10.18 4.98995 10.05 4.92995 9.89001 4.92995C9.73001 4.92995 9.60001 4.98995 9.50001 5.10995C9.40001 5.22995 9.35001 5.34995 9.35001 5.46995ZM15.35 5.46995V8.46995C15.35 8.54995 15.33 8.60995 15.29 8.64995C15.25 8.68995 15.21 8.70995 15.17 8.70995H3.89001C3.73001 8.70995 3.60001 8.75995 3.50001 8.85995C3.40001 8.95995 3.35001 9.08995 3.35001 9.24995C3.35001 9.40995 3.40001 9.53995 3.50001 9.63995C3.60001 9.73995 3.73001 9.78995 3.89001 9.78995H15.17C15.53 9.78995 15.83 9.66995 16.07 9.42995C16.31 9.18995 16.43 8.86995 16.43 8.46995V5.52995C16.43 5.36995 16.38 5.22995 16.28 5.10995C16.18 4.98995 16.05 4.92995 15.89 4.92995C15.73 4.92995 15.6 4.98995 15.5 5.10995C15.4 5.22995 15.35 5.34995 15.35 5.46995Z" fill="white" />
</svg>