<svg width="36" height="35" viewBox="0 0 36 35" fill="none" xmlns="http://www.w3.org/2000/svg">
  <mask id="mask0_1_100" style="mask-type:luminance" maskUnits="userSpaceOnUse" x="1" y="0" width="34" height="35">
    <path d="M35 0.0900879H1V34.0901H35V0.0900879Z" fill="white" />
  </mask>
  <g mask="url(#mask0_1_100)">
    <path d="M32.7415 14.246L30.7088 8.20829C30.1364 6.50896 28.5473 5.36743 26.7543 5.36743H23.2242C22.3084 5.36743 21.564 6.11251 21.564 7.02759V14.2446H1.99609C1.44625 14.2446 1 14.6909 1 15.2407V22.8442C1 24.1259 2.04258 25.1685 3.32422 25.1685H5.0727C5.52957 27.2503 7.38895 28.8128 9.60559 28.8128C11.8222 28.8128 13.6809 27.2503 14.1378 25.1685H23.8491C24.3059 27.2503 26.1646 28.8128 28.3813 28.8128C30.6026 28.8128 32.4646 27.2437 32.9168 25.1558C34.0856 25.035 35 24.0442 35 22.8442V16.5688C35 15.3091 33.9926 14.2805 32.7415 14.246ZM26.7543 7.35962C27.6913 7.35962 28.5221 7.95595 28.8202 8.8438L30.6391 14.2446L23.5562 14.2447V7.35962H26.7543ZM2.99219 22.8442V16.2368H21.564V23.1763H14.1378C13.6809 21.0951 11.8222 19.5326 9.60559 19.5326C7.38895 19.5326 5.52957 21.0951 5.0727 23.1763H3.32422C3.14094 23.1763 2.99219 23.0275 2.99219 22.8442ZM9.60559 26.8206C7.72848 26.8206 6.44445 24.9092 7.15188 23.1763C7.54633 22.2087 8.49727 21.5247 9.60559 21.5247C10.7139 21.5247 11.6642 22.2087 12.0586 23.1763C12.7642 24.9048 11.4869 26.8206 9.60559 26.8206ZM23.5562 16.2369C24.3715 16.2369 31.6649 16.2368 32.6758 16.2368C32.8591 16.2368 33.0078 16.3856 33.0078 16.5688C32.964 23.0322 33.1103 22.9062 32.8949 23.0926C32.4068 21.0533 30.568 19.5326 28.3813 19.5326C26.1646 19.5326 24.3059 21.0951 23.8491 23.1763H23.5562V16.2369ZM25.9282 25.1685C25.2208 23.4353 26.5055 21.5247 28.3813 21.5247C30.2492 21.5247 31.5465 23.4254 30.835 25.1685C29.9394 27.3668 26.8241 27.3675 25.9282 25.1685Z" fill="#050B20" />
  </g>
</svg>