<svg width="34" height="35" viewBox="0 0 34 35" fill="none" xmlns="http://www.w3.org/2000/svg">
  <mask id="mask0_1_86" style="mask-type:luminance" maskUnits="userSpaceOnUse" x="0" y="0" width="34" height="35">
    <path d="M0 0.0900879H34V34.0901H0V0.0900879Z" fill="white" />
  </mask>
  <g mask="url(#mask0_1_86)">
    <path d="M29.8033 24.0252H30.3366C31.8036 24.0252 33.0039 22.8248 33.0039 21.3578V17.0901C33.0039 15.6231 32.0437 14.4228 30.87 14.4228H28.7362L26.5861 9.40594C26.0083 8.05742 24.3351 6.95435 22.8681 6.95435H3.66343C2.19639 6.95435 0.996094 8.15458 0.996094 9.62149V21.3578C0.996094 22.8248 2.19639 24.0252 3.66343 24.0252H4.19707" stroke="#050B20" stroke-width="2" stroke-miterlimit="10" stroke-linecap="round" stroke-linejoin="round" />
    <path d="M10.5988 24.025C10.5988 25.7927 9.16571 27.2257 7.39805 27.2257C5.63031 27.2257 4.19727 25.7927 4.19727 24.025C4.19727 22.2572 5.63031 20.8242 7.39805 20.8242C9.16571 20.8242 10.5988 22.2572 10.5988 24.025Z" stroke="#050B20" stroke-width="2" stroke-miterlimit="10" stroke-linecap="round" stroke-linejoin="round" />
    <path d="M29.8027 24.025C29.8027 25.7927 28.3696 27.2257 26.6021 27.2257C24.8346 27.2257 23.4014 25.7927 23.4014 24.025C23.4014 22.2572 24.8346 20.8242 26.6021 20.8242C28.3696 20.8242 29.8027 22.2572 29.8027 24.025Z" stroke="#050B20" stroke-width="2" stroke-miterlimit="10" stroke-linecap="round" stroke-linejoin="round" />
    <path d="M10.5986 24.0251H23.4018" stroke="#050B20" stroke-width="2" stroke-miterlimit="10" stroke-linecap="round" stroke-linejoin="round" />
    <path d="M17 24.0252V6.95435" stroke="#050B20" stroke-width="2" stroke-miterlimit="10" stroke-linecap="round" stroke-linejoin="round" />
    <path d="M28.7365 14.4229H22.335V6.95435" stroke="#050B20" stroke-width="2" stroke-miterlimit="10" stroke-linecap="round" stroke-linejoin="round" />
    <path d="M12.7329 15.4897H11.666" stroke="#050B20" stroke-width="2" stroke-miterlimit="10" stroke-linecap="round" stroke-linejoin="round" />
    <path d="M33.0037 18.6904H31.4033" stroke="#050B20" stroke-width="2" stroke-miterlimit="10" stroke-linecap="round" stroke-linejoin="round" />
  </g>
</svg>